<?xml version="1.0" encoding="utf-8"?>
<!-- Generator: Adobe Illustrator 17.0.0, SVG Export Plug-In . SVG Version: 6.00 Build 0)  -->
<!DOCTYPE svg PUBLIC "-//W3C//DTD SVG 1.1//EN" "http://www.w3.org/Graphics/SVG/1.1/DTD/svg11.dtd">
<svg version="1.1" id="Capa_1" xmlns="http://www.w3.org/2000/svg" xmlns:xlink="http://www.w3.org/1999/xlink" x="0px" y="0px"
	 width="189.921px" height="189.921px" viewBox="0 0 189.921 189.921" enable-background="new 0 0 189.921 189.921"
	 xml:space="preserve">
<g>
	<g>
		<g>
			<path fill="#997618" d="M68.813,74.776c-1.141,0-1.843-1.449-1.843-2.808c0-1.053,2.062-2.983,2.501-2.983
				c0.088,0-1.228,1.622-0.965,1.973c2.983,0,9.916-3.904,9.916-7.459c0-1.973-1.711-3.114-4.431-3.114
				c-13.513,0-37.162,22.903-36.197,35.143c0.307,3.685,3.027,4.696,6.406,4.696c8.248,0,21.674-7.416,32.072-15.84
				c0.044-0.043,0.526,0.175,0.351,0.263c-7.722,7.546-24.263,18.691-33.871,18.472c-4.695-0.088-8.775-2.151-9.038-7.504
				c-0.877-15.356,25.052-36.328,39.838-36.328c3.817,0,6.493,1.624,6.493,5.002C80.045,68.676,73.112,74.776,68.813,74.776z"/>
			<g>
				<g>
					<path fill="#997618" d="M97.44,96.503c-1.985,0-4.701,0.157-6.946,0.314c-0.418,2.559-1.045,5.589-1.201,7.155
						c-0.105,0.733-2.873,1.516-2.507,0c0.261-1.2,1.097-4.23,1.775-7.051c-2.455,0.21-5.85,0.314-7.364,0.471
						c-0.784,0.104-0.941-2.508,0.626-2.508c1.149,0,4.492,0.104,7.26,0.157c0.47-1.933,1.253-5.483,1.827-7.573
						c0.314-1.202,1.776-1.62,1.463-0.21c-0.47,1.933-1.149,5.642-1.567,7.783c2.037,0.051,4.544,0,6.789,0.051
						C98.746,95.146,98.85,96.503,97.44,96.503z"/>
				</g>
			</g>
			<g>
				<path fill="#997618" d="M113.223,125.519c-0.975,1.253-2.142,2.455-3.5,3.604c-1.358,1.151-2.821,2.151-4.388,3.004
					c-1.567,0.853-3.205,1.506-4.911,1.959c-1.706,0.453-3.396,0.61-5.067,0.471c-1.951-0.141-3.388-0.626-4.31-1.463
					c-0.923-0.837-1.419-1.82-1.489-2.951c-0.07-1.133,0.261-2.3,0.993-3.502c0.731-1.2,1.758-2.245,3.081-3.134
					c1.323-0.888,2.917-1.522,4.78-1.906c1.863-0.384,3.909-0.296,6.138,0.261c0.941,0.208,1.411,0.522,1.411,0.941
					c0,0.418-0.261,0.826-0.784,1.226c-0.522,0.402-1.185,0.751-1.986,1.045c-0.802,0.298-1.515,0.41-2.142,0.341
					c-2.264-0.139-4.058-0.131-5.381,0.027c-1.323,0.155-2.272,0.408-2.847,0.757c-0.574,0.349-0.81,0.757-0.705,1.226
					c0.104,0.471,0.461,0.941,1.07,1.412c0.609,0.469,1.445,0.896,2.508,1.28c1.062,0.382,2.254,0.661,3.578,0.835
					c1.323,0.176,2.568,0.114,3.735-0.182c1.166-0.296,2.238-0.733,3.213-1.306c0.974-0.575,1.845-1.263,2.612-2.063
					c0.765-0.802,1.427-1.637,1.985-2.508c0.592-0.906,1.262-2.124,2.011-3.657s1.523-3.196,2.325-4.989
					c0.801-1.794,1.601-3.649,2.403-5.563c0.801-1.916,1.549-3.726,2.247-5.434c0.696-1.706,1.306-3.22,1.828-4.545
					c0.522-1.322,0.888-2.298,1.097-2.926c-2.09,1.604-3.989,3.179-5.695,4.728c-1.707,1.551-3.013,2.996-3.918,4.336
					c-0.906,1.341-1.289,2.559-1.149,3.657c0.139,1.098,1.045,1.977,2.716,2.639c0.139,0.069,0.157,0.312,0.052,0.731
					c-0.104,0.418-0.287,0.845-0.548,1.28c-0.261,0.437-0.593,0.802-0.993,1.098c-0.401,0.296-0.827,0.357-1.281,0.184
					c-1.846-0.802-2.996-1.777-3.448-2.926c-0.453-1.149-0.417-2.386,0.105-3.71c0.522-1.322,1.418-2.698,2.69-4.126
					c1.271-1.428,2.691-2.804,4.258-4.126c1.567-1.324,3.178-2.551,4.832-3.683c1.654-1.133,3.125-2.081,4.415-2.847
					c0.626-0.522,1.322-0.959,2.09-1.306c0.765-0.349,1.437-0.584,2.011-0.706c0.574-0.122,1.009-0.104,1.306,0.053
					c0.295,0.155,0.287,0.514-0.027,1.069c-0.313,0.594-0.862,1.665-1.646,3.214c-0.784,1.549-1.698,3.353-2.743,5.406
					c-1.045,2.057-2.159,4.232-3.343,6.53c-1.185,2.3-2.351,4.512-3.501,6.636c-1.149,2.124-2.229,4.049-3.239,5.771
					C114.668,123.403,113.85,124.682,113.223,125.519z"/>
				<path fill="#997618" d="M140.844,132.27c-0.277,0.428-0.535,0.747-0.774,0.963c-0.24,0.212-0.434,0.32-0.585,0.32
					c-0.151,0-0.233-0.108-0.245-0.32c-0.013-0.215,0.081-0.535,0.283-0.963c0.1-0.202,0.333-0.718,0.698-1.548
					c0.364-0.83,0.792-1.849,1.283-3.056c0.49-1.209,1.012-2.548,1.566-4.021c0.553-1.471,1.069-2.962,1.547-4.472
					c0.478-1.51,0.888-2.983,1.227-4.417c0.341-1.433,0.541-2.704,0.604-3.811c0.062-1.107-0.038-1.995-0.302-2.661
					c-0.264-0.666-0.761-1-1.491-1c-1.082,0-2.195,0.553-3.34,1.66c-1.146,1.107-2.335,2.586-3.567,4.435
					c-1.233,1.849-2.523,3.995-3.869,6.436c-1.346,2.44-2.749,4.995-4.208,7.662c-0.478,0.98-0.913,1.868-1.303,2.66
					c-0.39,0.793-0.723,1.429-1,1.906c-0.15,0.277-0.315,0.435-0.49,0.472c-0.176,0.038-0.327,0.006-0.453-0.094
					c-0.126-0.1-0.207-0.264-0.245-0.491c-0.038-0.226,0.018-0.489,0.17-0.792c0.327-0.73,0.717-1.698,1.17-2.906
					c0.453-1.209,0.925-2.511,1.415-3.907c0.491-1.396,0.975-2.831,1.453-4.302c0.478-1.473,0.919-2.844,1.321-4.115
					c0.402-1.269,0.755-2.371,1.057-3.303c0.302-0.93,0.503-1.56,0.604-1.887c-1.409,0.957-2.63,1.774-3.661,2.453
					c-1.032,0.68-1.768,1.29-2.208,1.831c-0.441,0.541-0.529,1.044-0.265,1.51c0.265,0.466,1,0.938,2.208,1.415
					c0.1,0.05,0.114,0.226,0.038,0.528c-0.076,0.302-0.208,0.61-0.397,0.924c-0.189,0.316-0.428,0.579-0.717,0.793
					c-0.29,0.214-0.598,0.258-0.924,0.133c-1.359-0.579-2.24-1.202-2.642-1.869c-0.403-0.666-0.472-1.345-0.208-2.038
					c0.265-0.691,0.787-1.39,1.566-2.095c0.78-0.703,1.673-1.39,2.68-2.057s2.057-1.296,3.151-1.887
					c1.095-0.591,2.095-1.126,3.001-1.604c0.453-0.327,0.937-0.61,1.453-0.849c0.515-0.239,0.975-0.397,1.378-0.472
					c0.402-0.075,0.691-0.044,0.868,0.094c0.176,0.139,0.164,0.397-0.038,0.774c-0.226,0.428-0.604,1.188-1.132,2.284
					c-0.529,1.094-1.12,2.371-1.774,3.83c0.956-1.56,1.944-3.064,2.963-4.51s2.038-2.717,3.057-3.813
					c1.02-1.094,2.013-1.968,2.982-2.623c0.969-0.655,1.893-0.982,2.775-0.982c0.678,0,1.182,0.252,1.51,0.755
					c0.326,0.504,0.509,1.196,0.547,2.076c0.037,0.882-0.038,1.906-0.227,3.077c-0.189,1.169-0.459,2.422-0.811,3.755
					c-0.352,1.334-0.768,2.717-1.246,4.152c-0.478,1.435-0.969,2.844-1.471,4.227c0.703-1.358,1.458-2.748,2.265-4.171
					c0.805-1.421,1.628-2.798,2.471-4.133c0.843-1.333,1.704-2.59,2.586-3.774c0.88-1.182,1.754-2.213,2.623-3.095
					c0.868-0.88,1.718-1.579,2.548-2.095c0.83-0.515,1.635-0.774,2.416-0.774c0.855,0,1.396,0.448,1.622,1.34
					c0.227,0.893,0.214,2.076-0.037,3.549c-0.252,1.471-0.68,3.158-1.284,5.057c-0.603,1.9-1.296,3.857-2.076,5.869
					c-0.78,2.012-1.598,3.994-2.453,5.945c-0.855,1.951-1.654,3.717-2.396,5.303c-0.743,1.585-1.384,2.912-1.926,3.981
					c-0.541,1.07-0.874,1.718-1,1.945c-0.252,0.453-0.479,0.755-0.68,0.905c-0.202,0.152-0.352,0.195-0.453,0.133
					c-0.102-0.063-0.133-0.227-0.094-0.491c0.037-0.264,0.17-0.585,0.397-0.963c0.1-0.175,0.364-0.711,0.792-1.604
					c0.428-0.893,0.938-1.995,1.529-3.303c0.591-1.308,1.227-2.773,1.906-4.396s1.321-3.266,1.924-4.926
					c0.604-1.66,1.138-3.277,1.604-4.851c0.466-1.572,0.78-2.968,0.944-4.189s0.139-2.201-0.075-2.944
					c-0.214-0.742-0.686-1.113-1.415-1.113c-0.805,0-1.61,0.302-2.415,0.905c-0.806,0.604-1.617,1.448-2.434,2.528
					c-0.818,1.082-1.662,2.366-2.53,3.851c-0.867,1.485-1.768,3.108-2.698,4.868c-0.932,1.762-1.912,3.624-2.944,5.586
					s-2.126,3.963-3.283,6.001L140.844,132.27z"/>
			</g>
		</g>
	</g>
	<path fill="none" stroke="#295244" stroke-width="3" stroke-miterlimit="10" d="M156.618,37.538
		c32.831,32.831,32.831,86.06,0,118.891s-86.06,32.831-118.891,0"/>
	<g>
		<g>
			<path fill="#2A5244" d="M22.201,132.812c0.59-0.083,1.539-0.125,1.985-0.055c0.282,0.371,1.092,1.387,1.652,2.439
				c1.795,3.366,0.862,5.793-0.729,6.641c-2.15,1.146-4.724-0.379-6.35-3.43c-0.593-1.112-0.87-2.161-1.023-2.581
				c0.525-0.415,0.884-0.722,1.392-1.089l0.31,0.395c-0.848,0.896-0.919,1.898-0.077,3.477c1.25,2.345,3.315,2.865,4.841,2.053
				c1.897-1.012,2.311-3.276,1.197-5.365c-0.753-1.413-1.638-1.83-3.075-1.99L22.201,132.812z"/>
			<path fill="#2A5244" d="M19.07,121.278c1.137,0.699,1.652,1.622,1.809,2.091c0.596,1.793-0.141,3.241-1.38,3.652
				c-0.743,0.247-1.545,0.119-2.244-0.33c-0.694-0.434-1.258-1.144-1.511-1.902c-0.413-1.244,0.056-2.513,0.929-2.804
				c0.248-0.082,0.352-0.045,0.485,0.198c0.115,0.23,0.855,2.102,1.503,3.933c1.481-0.511,1.697-1.91,1.354-2.944
				c-0.21-0.63-0.581-1.117-1.13-1.545L19.07,121.278z M18.168,126.208c-0.278-0.876-0.58-1.745-0.91-2.658
				c-0.108-0.287-0.211-0.36-0.364-0.31c-0.578,0.192-0.891,0.906-0.611,1.747C16.523,125.714,17.204,126.224,18.168,126.208z"/>
			<path fill="#2A5244" d="M16.433,109.588c0.748,0.575,1.438,1.523,1.604,2.446c0.351,1.945-0.595,3.294-1.818,3.515
				c-0.894,0.161-1.733-0.224-2.508-1.157c-0.58-0.691-0.941-1.578-1.051-2.182c-0.12-0.671-0.055-1.22,0.05-1.481
				c0.086-0.223,0.162-0.289,0.285-0.311c0.232-0.042,0.54,0.266,0.567,0.417c0.016,0.083,0.019,0.169-0.059,0.305
				c-0.236,0.51-0.269,1.104-0.172,1.642c0.199,1.106,1.075,1.9,2.226,1.692c1.569-0.267,1.823-1.802,1.654-2.74
				c-0.117-0.654-0.358-1.147-1.008-1.81L16.433,109.588z"/>
			<path fill="#2A5244" d="M10.051,103.255c-0.336,0.018-0.603-0.327-0.625-0.753c-0.021-0.425,0.21-0.761,0.545-0.778
				c0.298-0.016,0.588,0.294,0.611,0.736C10.604,102.868,10.349,103.239,10.051,103.255z M16.863,103.739l-0.323,0.017
				c-0.115-1.018-0.195-1.133-0.966-1.093l-2.372,0.122c-0.684,0.035-0.744,0.072-0.791,1.081l-0.298,0.016
				c-0.141-0.795-0.326-1.484-0.571-2.12l3.975-0.205c0.771-0.039,0.839-0.162,0.848-1.187l0.323-0.017L16.863,103.739z"/>
			<path fill="#2A5244" d="M16.709,94.882l-0.322-0.02c-0.003-1.023-0.068-1.181-0.825-1.225l-5.358-0.31
				c-0.794-0.046-0.825,0.055-0.936,1.089L8.958,94.4c-0.026-0.838-0.171-1.767-0.278-2.268l6.946,0.401
				c0.757,0.044,0.84-0.088,0.962-1.121l0.322,0.019L16.709,94.882z"/>
			<path fill="#2A5244" d="M11.022,83.838c-0.331-0.057-0.517-0.451-0.445-0.871s0.371-0.697,0.702-0.642
				c0.294,0.05,0.509,0.415,0.435,0.852C11.645,83.58,11.315,83.888,11.022,83.838z M17.56,85.792l-0.319-0.055
				c0.11-1.018,0.057-1.148-0.703-1.276l-2.34-0.396c-0.674-0.114-0.741-0.091-1.008,0.884l-0.294-0.05
				c0.036-0.807,0.006-1.521-0.094-2.193l3.921,0.664c0.76,0.128,0.854,0.023,1.086-0.975l0.318,0.054L17.56,85.792z"/>
			<path fill="#2A5244" d="M20.959,72.126c-0.055,0.18-0.249,0.477-0.4,0.591c-0.22,0.164-0.404,0.215-0.609,0.206
				c0.104,0.726,0.294,1.55,0.135,2.071c-0.313,1.027-1.185,1.581-1.897,1.362c-0.523-0.159-0.784-0.667-0.723-1.592
				c0.053-0.981,0.082-2.185,0.003-2.564l-0.154-0.048c-0.808-0.247-1.429,0.169-1.668,0.951c-0.1,0.326-0.079,0.6,0.007,0.786
				c0.096,0.243,0.286,0.426,0.562,0.671c0.151,0.1,0.173,0.284,0.108,0.496c-0.074,0.245-0.391,0.558-0.652,0.478
				c-0.155-0.047-0.226-0.282-0.291-0.623c-0.088-0.437-0.222-1.528-0.084-2.448c0.134-0.44,0.374-0.884,0.67-1.132
				c0.471-0.391,0.96-0.42,1.519-0.249l2.08,0.636c0.499,0.152,0.745-0.058,0.83-0.334c0.055-0.18,0.064-0.426,0.038-0.595
				l0.371-0.064L20.959,72.126z M17.859,72.319l0.035,1.632c0.001,0.678,0.11,1.085,0.515,1.209c0.559,0.171,1.021-0.365,1.17-0.854
				c0.13-0.424,0.081-1.115-0.031-1.471L17.859,72.319z"/>
			<path fill="#2A5244" d="M28.746,46.736c-0.535,0.972-0.458,1.243-0.262,1.996c0.154,0.564,0.36,1.142,0.571,1.965
				c0.708-0.274,2.504-0.862,3.267-0.898l0.051,0.174c-0.459,0.576-1.139,1.151-1.374,1.243c-0.237,0.07-1.078,0.319-1.669,0.527
				c0.337,1.592,0.072,2.717-0.544,3.677c-1.076,1.677-2.585,2.023-3.433,1.479c-0.9-0.577-0.736-1.686-0.627-3.213
				c-0.774,0.332-1.412,0.449-1.925,0.12c-0.879-0.563-0.872-1.955-0.118-3.13c0.663-1.031,1.788-1.564,2.554-1.053
				c0.397,0.255,0.496,0.723,0.498,1.088c0.001,0.345,0.005,0.752-0.065,1.414c0.557-0.27,1.741-0.824,2.894-1.238
				c-0.144-0.558-0.341-0.987-0.636-1.541c-0.283-0.525-0.488-0.414-1.15,0.456l-0.304-0.194l1.97-3.066L28.746,46.736z
				 M23.193,52.783c0.481,0.31,1.094,0.115,2.027-0.419c0.067-0.887-0.088-1.473-0.561-1.796c-0.554-0.335-1.317-0.157-1.723,0.474
				C22.515,51.7,22.607,52.407,23.193,52.783z M28.826,51.905c-0.919,0.28-2.067,0.758-3.63,1.557
				c-0.126,1.254,0.085,1.915,0.588,2.237c0.9,0.578,1.986-0.102,2.548-0.976C28.94,53.778,29.003,52.666,28.826,51.905z"/>
			<path fill="#2A5244" d="M40.097,30.98c-0.869,0.893-0.919,1.04-0.282,1.738l2.906,3.188c1.056,1.157,1.29,1.97,1.033,3.078
				c-0.144,0.602-0.37,1.061-0.584,1.407l-0.419-0.105c0.449-0.847,0.433-1.572,0.127-2.186c-0.268-0.496-0.683-0.976-1.336-1.692
				l-2.622-2.875c-0.637-0.698-0.774-0.673-1.794,0.155l-0.234-0.257l2.971-2.708L40.097,30.98z"/>
			<path fill="#2A5244" d="M53.398,26.646c1.068,1.559-0.004,3.336-1.239,4.185c-1.755,1.206-3.554,0.902-4.278-0.153
				c-1.09-1.59,0.103-3.435,1.254-4.226C50.707,25.371,52.582,25.456,53.398,26.646z M48.786,29.617
				c0.816,1.189,2.158,1.55,3.281,0.778c0.856-0.588,1.221-1.532,0.355-2.794c-0.731-1.066-2.011-1.545-3.204-0.726
				C48.405,27.436,48.048,28.54,48.786,29.617z"/>
			<path fill="#2A5244" d="M62.109,20.759c-0.566-0.497-1.237-0.666-1.926-0.328c-0.565,0.278-0.779,0.771-0.571,1.194
				c0.235,0.479,0.947,0.421,1.651,0.311c1.203-0.217,2.139-0.205,2.483,0.497c0.461,0.938-0.512,2.01-1.644,2.565
				c-0.718,0.353-1.489,0.482-1.796,0.438c-0.178-0.092-0.661-0.728-0.836-1.084l0.416-0.273c0.569,0.579,1.444,0.854,2.301,0.435
				c0.535-0.263,0.907-0.819,0.683-1.276c-0.225-0.458-0.804-0.478-1.571-0.378c-1.086,0.146-2.126,0.269-2.515-0.523
				c-0.351-0.714,0.21-1.736,1.494-2.367c0.581-0.285,1.007-0.384,1.341-0.438c0.237,0.175,0.681,0.69,0.864,0.947L62.109,20.759z"
				/>
			<path fill="#2A5244" d="M75.074,18.781c-0.704,1.134-1.63,1.646-2.099,1.801c-1.798,0.589-3.242-0.153-3.649-1.394
				c-0.244-0.744-0.113-1.546,0.34-2.244c0.436-0.692,1.148-1.253,1.909-1.503c1.247-0.408,2.514,0.065,2.801,0.939
				c0.081,0.248,0.044,0.352-0.199,0.484c-0.231,0.114-2.107,0.848-3.941,1.488c0.505,1.483,1.904,1.704,2.94,1.364
				c0.632-0.207,1.12-0.576,1.55-1.123L75.074,18.781z M70.146,17.86c0.878-0.275,1.748-0.574,2.663-0.9
				c0.288-0.107,0.361-0.21,0.312-0.363c-0.19-0.579-0.903-0.895-1.745-0.618C70.647,16.218,70.134,16.896,70.146,17.86z
				 M70.452,15.078l0.498-2.087c0.118-0.078,0.974-0.477,1.163-0.499l0.067,0.096L70.943,15.1L70.452,15.078z"/>
			<path fill="#2A5244" d="M98.233,16.443l-0.01-0.36c1.309-0.112,1.341-0.176,1.306-1.444l-0.2-4.661l-0.034,0.001l-3.721,6.454
				l-0.323,0.009l-3.716-6.066l-0.034,0.001l-0.128,3.314c-0.04,0.997-0.044,1.457-0.015,1.893c0.049,0.533,0.46,0.608,1.5,0.641
				l0.011,0.373l-3.729,0.107l-0.01-0.373c0.917-0.089,1.221-0.209,1.325-0.723c0.074-0.388,0.163-0.876,0.23-2.098l0.154-2.382
				c0.096-1.471,0.044-1.494-1.406-1.553l-0.011-0.348l2.521-0.072l3.774,5.704l3.565-5.915l2.656-0.076l0.01,0.349
				c-1.41,0.14-1.53,0.131-1.443,1.386l0.266,4c0.087,1.267,0.141,1.327,1.539,1.362l0.01,0.36L98.233,16.443z"/>
			<path fill="#2A5244" d="M112.741,17.911c-0.186-0.029-0.507-0.18-0.641-0.314c-0.194-0.193-0.271-0.369-0.29-0.573
				c-0.704,0.205-1.493,0.51-2.032,0.426c-1.06-0.166-1.73-0.949-1.615-1.687c0.085-0.54,0.55-0.87,1.475-0.94
				c0.979-0.086,2.174-0.228,2.539-0.359l0.025-0.159c0.131-0.835-0.369-1.392-1.177-1.518c-0.336-0.052-0.604,0.007-0.776,0.118
				c-0.228,0.128-0.382,0.343-0.585,0.651c-0.077,0.164-0.258,0.211-0.477,0.178c-0.252-0.04-0.606-0.309-0.564-0.579
				c0.025-0.16,0.248-0.264,0.576-0.376c0.42-0.148,1.482-0.436,2.412-0.429c0.454,0.07,0.927,0.245,1.214,0.504
				c0.453,0.41,0.551,0.891,0.46,1.468l-0.336,2.149c-0.081,0.517,0.161,0.73,0.447,0.775c0.186,0.028,0.431,0.004,0.594-0.046
				l0.116,0.357L112.741,17.911z M112.113,14.869l-1.61,0.265c-0.67,0.097-1.059,0.263-1.124,0.68
				c-0.09,0.578,0.506,0.96,1.011,1.039c0.438,0.068,1.115-0.078,1.451-0.239L112.113,14.869z"/>
			<path fill="#2A5244" d="M122.588,16.079c0.621-0.411,1.443-0.841,2.21-0.611c0.538,0.161,0.795,0.55,0.72,0.8
				c-0.061,0.203-0.284,0.356-0.61,0.376c-0.177-0.001-0.304-0.052-0.384-0.141c-0.162-0.23-0.308-0.339-0.552-0.412
				c-0.425-0.127-1.094,0.088-1.616,0.646l-0.585,1.954c-0.222,0.738-0.178,0.83,0.995,1.246l-0.093,0.31l-3.409-1.021l0.093-0.31
				c1.013,0.238,1.132,0.195,1.35-0.531l0.672-2.24c0.225-0.751,0.17-0.807-0.706-1.146l0.086-0.286
				c0.727,0.127,1.405,0.175,2.158,0.153l-0.36,1.203L122.588,16.079z"/>
			<path fill="#2A5244" d="M129.5,22.735l0.13-0.296c0.961,0.354,1.101,0.335,1.421-0.394l0.915-2.083
				c0.32-0.729,0.237-0.793-0.564-1.255l0.12-0.273c0.757,0.226,1.472,0.377,2.149,0.444l-1.591,3.62
				c-0.32,0.729-0.257,0.838,0.653,1.307l-0.13,0.296L129.5,22.735z M132.709,17.722l1.766-1.22c0.14,0.021,1.042,0.296,1.199,0.405
				l-0.015,0.116l-2.599,1.043L132.709,17.722z"/>
			<path fill="#2A5244" d="M141.898,29.371c-0.16-0.097-0.4-0.358-0.474-0.533c-0.105-0.253-0.109-0.444-0.05-0.642
				c-0.729-0.077-1.575-0.096-2.041-0.378c-0.918-0.556-1.241-1.535-0.854-2.173c0.283-0.469,0.839-0.597,1.721-0.311
				c0.938,0.292,2.097,0.615,2.485,0.632l0.083-0.138c0.438-0.724,0.188-1.428-0.512-1.851c-0.292-0.177-0.562-0.224-0.764-0.187
				c-0.259,0.032-0.483,0.173-0.788,0.381c-0.134,0.122-0.318,0.098-0.508-0.017c-0.219-0.133-0.444-0.517-0.303-0.75
				c0.084-0.139,0.33-0.149,0.676-0.129c0.444,0.021,1.536,0.159,2.394,0.519c0.394,0.238,0.765,0.579,0.933,0.928
				c0.263,0.552,0.17,1.033-0.132,1.533l-1.127,1.861c-0.271,0.446-0.128,0.736,0.12,0.887c0.16,0.097,0.396,0.167,0.566,0.183
				l-0.028,0.375L141.898,29.371z M142.473,26.318l-1.59-0.367c-0.657-0.165-1.079-0.158-1.298,0.203
				c-0.303,0.5,0.103,1.079,0.54,1.344c0.379,0.229,1.062,0.353,1.434,0.33L142.473,26.318z"/>
		</g>
	</g>
</g>
</svg>
