<?xml version="1.0" encoding="utf-8"?>
<!-- Generator: Adobe Illustrator 17.0.0, SVG Export Plug-In . SVG Version: 6.00 Build 0)  -->
<!DOCTYPE svg PUBLIC "-//W3C//DTD SVG 1.1//EN" "http://www.w3.org/Graphics/SVG/1.1/DTD/svg11.dtd">
<svg version="1.1" id="Capa_1" xmlns="http://www.w3.org/2000/svg" xmlns:xlink="http://www.w3.org/1999/xlink" x="0px" y="0px"
	 width="467px" height="78.5px" viewBox="0 0 467 78.5" enable-background="new 0 0 467 78.5" xml:space="preserve">
<g>
	<g>
		<path fill="#997618" d="M52.943,31.243c-1.248,0-2.017-1.585-2.017-3.072c0-1.152,2.257-3.265,2.736-3.265
			c0.096,0-1.344,1.776-1.056,2.16c3.264,0,10.849-4.272,10.849-8.161c0-2.16-1.872-3.408-4.849-3.408
			c-14.785,0-40.659,25.059-39.604,38.452c0.336,4.032,3.313,5.136,7.009,5.136c9.024,0,23.714-8.112,35.091-17.329
			c0.048-0.048,0.576,0.191,0.385,0.288c-8.449,8.257-26.547,20.449-37.06,20.21c-5.137-0.097-9.601-2.353-9.889-8.209
			c-0.96-16.802,27.41-39.748,43.588-39.748c4.176,0,7.104,1.776,7.104,5.473C65.232,24.57,57.647,31.243,52.943,31.243z"/>
		<path fill="#997618" d="M57.835,51.02c-0.048,0.576,0.384,0.912,1.44,0.912c3.504,0,12.289-6.673,17.137-10.705
			c0.145-0.096,0.48,0.145,0.336,0.288c-3.6,3.36-13.152,12.529-19.537,12.529c-1.488,0-3.408-1.729-3.408-3.024
			c0-1.152,0.288-2.112,0.672-3.168c1.152-2.736,3.601-5.761,6.625-8.305c3.984-3.313,8.256-4.801,10.32-4.801
			c0.72,0,2.929,1.104,2.929,2.448c0,2.977-9.217,9.889-14.594,10.033C58.891,48.236,57.979,49.772,57.835,51.02z M60.379,46.268
			c4.177-0.48,12.146-8.257,12.434-10.081C67.484,37.915,61.963,43.723,60.379,46.268z"/>
		<path fill="#997618" d="M76.219,51.98c4.416-0.479,12.48-6.961,17.137-10.753c0.145-0.096,0.48,0.096,0.337,0.24
			c-4.129,3.889-13.394,12.577-19.346,12.577c-1.536,0-3.265-1.44-3.505-2.977c-0.048-0.384-0.048-0.864,0.097-1.44
			c0.384-2.016,2.111-5.376,5.328-8.496c3.937-3.889,8.784-6.385,12.193-6.385c1.104,0,2.735,1.632,2.735,2.353
			c0,1.824-2.352,3.6-3.936,4.8c-0.097,0.097-0.336,0-0.24-0.144c0.768-0.769,2.736-4.561,2.353-4.896
			c-5.137,0.096-14.546,10.945-14.546,14.305C74.827,51.932,75.787,52.028,76.219,51.98z"/>
		<path fill="#997618" d="M88.793,53.997c-0.768-0.24-1.968-1.44-1.968-2.305c0-2.784,6.961-13.249,10.033-15.697
			c0.239-0.24,0.527-0.288,0.72-0.288c1.104,0,3.024,1.92,3.024,3.12c0,0.192-0.24-0.048-0.624-0.096
			c-1.969-0.192-8.545,10.753-9.121,12.721c2.929-0.768,9.937-7.44,12.865-10.272c0.336-0.24,0.576,0.144,0.432,0.288
			C99.979,45.98,92.346,53.804,89.37,54.044C89.178,54.044,89.034,54.044,88.793,53.997z M104.828,29.898
			c0.432,0.48,0.72,1.2,0.527,1.2c-0.096,0-0.479-0.191-1.008,0.048c-0.816,0.336-3.024,2.305-3.601,3.12
			c-0.672,0.864-1.68-0.144-1.728-1.008c-0.048-1.392,1.775-4.512,3.024-4.896C103.147,28.218,104.204,29.178,104.828,29.898z"/>
		<path fill="#997618" d="M114.955,23.753c1.44-1.872,2.784-3.408,3.984-4.368c0.721-0.576,1.345-0.96,1.776-0.96
			c2.688-0.145,4.608,2.641,3.696,2.112c-1.68-0.769-4.8,3.744-6.912,6.336c-2.064,2.641-4.032,5.473-6.433,8.978
			c-4.177,6.336-7.777,12.433-8.929,15.505c2.063,0.24,10.032-7.585,12.865-10.177c0.288-0.24,0.479,0.144,0.336,0.288
			c-2.353,2.688-10.705,11.425-13.586,12.481c-0.624,0.239-1.104,0.048-1.536-0.192c-0.384-0.192-1.439-1.2-1.728-1.92
			c-0.048-0.097-0.145-0.192-0.145-0.721c0-1.439,2.209-6.097,8.065-15.265C109.386,31.194,112.459,27.018,114.955,23.753z"/>
		<path fill="#997618" d="M111.161,53.997c-0.768-0.24-1.968-1.44-1.968-2.305c0-2.784,6.961-13.249,10.033-15.697
			c0.239-0.24,0.527-0.288,0.72-0.288c1.104,0,3.024,1.92,3.024,3.12c0,0.192-0.24-0.048-0.624-0.096
			c-1.969-0.192-8.545,10.753-9.121,12.721c2.929-0.768,9.937-7.44,12.865-10.272c0.336-0.24,0.576,0.144,0.432,0.288
			c-4.176,4.513-11.809,12.337-14.785,12.577C111.545,54.044,111.401,54.044,111.161,53.997z M127.195,29.898
			c0.432,0.48,0.72,1.2,0.527,1.2c-0.096,0-0.479-0.191-1.008,0.048c-0.816,0.336-3.024,2.305-3.601,3.12
			c-0.672,0.864-1.68-0.144-1.728-1.008c-0.048-1.392,1.775-4.512,3.024-4.896C125.514,28.218,126.571,29.178,127.195,29.898z"/>
		<path fill="#997618" d="M135.066,44.54c-1.44,1.44-10.801,9.505-12.817,9.505c-0.096,0-0.336-0.096-0.432-0.145
			c-0.864-0.432-2.112-2.256-2.112-3.216c0-5.232,10.993-15.938,19.826-15.938c1.824,0,4.224,0.769,4.224,3.024
			c0,0.816-0.432,1.632-0.912,2.256c-0.096,0.048-0.191,0-0.144-0.048c0.24-0.432,0.528-1.008,0.528-1.729
			c0-1.439-0.912-2.16-2.353-2.063c-2.784,0.144-6.288,2.16-9.409,4.8c-4.56,3.889-8.16,9.938-7.729,10.177
			c0.097,0.049,0.192,0.049,0.336,0c1.584-0.527,8.305-5.376,10.801-7.488c0.864-0.768,3.984-3.792,5.185-4.464
			c0.96-0.48,2.593,2.16,2.4,2.735c-0.24-0.479-4.561,4.753-6,7.825c-0.288,0.672-0.48,1.248-0.48,1.632
			c3.024-0.864,9.889-7.44,12.865-10.225c0.24-0.24,0.479,0.144,0.336,0.288c-4.177,4.561-12.001,12.577-14.881,12.577
			c-0.24,0-0.48-0.096-0.816-0.288c-0.672-0.384-1.584-1.393-1.584-2.256c0-0.48,0.191-1.057,0.384-1.776
			C132.858,47.948,134.154,45.74,135.066,44.54z"/>
		<path fill="#997618" d="M189.691,43.58c-1.824,0-4.32,0.144-6.385,0.288c-0.384,2.352-0.96,5.136-1.104,6.576
			c-0.096,0.672-2.64,1.393-2.304,0c0.24-1.104,1.008-3.889,1.632-6.48c-2.256,0.192-5.376,0.288-6.769,0.432
			c-0.72,0.097-0.864-2.304,0.576-2.304c1.057,0,4.129,0.096,6.673,0.144c0.432-1.775,1.152-5.04,1.68-6.96
			c0.288-1.104,1.633-1.488,1.345-0.192c-0.433,1.776-1.057,5.185-1.44,7.152c1.872,0.049,4.177,0,6.24,0.049
			C190.891,42.332,190.987,43.58,189.691,43.58z"/>
		<path fill="#997618" d="M239.374,52.443c-1.027,1.32-2.255,2.585-3.686,3.795c-1.43,1.211-2.97,2.264-4.62,3.163
			c-1.649,0.897-3.374,1.585-5.17,2.063c-1.797,0.476-3.575,0.641-5.335,0.495c-2.054-0.147-3.566-0.66-4.537-1.54
			c-0.972-0.88-1.494-1.917-1.567-3.107c-0.074-1.192,0.274-2.42,1.045-3.686c0.77-1.265,1.851-2.364,3.245-3.3
			c1.393-0.935,3.07-1.604,5.032-2.008c1.961-0.402,4.115-0.311,6.463,0.275c0.989,0.22,1.484,0.55,1.484,0.99
			c0,0.439-0.274,0.871-0.825,1.292c-0.55,0.422-1.246,0.789-2.09,1.101s-1.595,0.431-2.255,0.357
			c-2.384-0.146-4.271-0.138-5.665,0.027s-2.393,0.432-2.997,0.798c-0.605,0.366-0.853,0.797-0.743,1.292
			c0.11,0.495,0.486,0.99,1.128,1.485c0.641,0.495,1.521,0.943,2.64,1.348c1.118,0.402,2.374,0.695,3.768,0.88
			c1.394,0.183,2.704,0.118,3.933-0.192c1.229-0.313,2.355-0.771,3.383-1.375c1.026-0.605,1.942-1.33,2.75-2.173
			c0.806-0.843,1.503-1.723,2.09-2.64c0.623-0.953,1.328-2.236,2.117-3.851c0.788-1.613,1.604-3.363,2.448-5.252
			c0.843-1.889,1.686-3.841,2.529-5.857s1.631-3.924,2.365-5.721c0.733-1.796,1.375-3.391,1.925-4.785
			c0.55-1.393,0.936-2.42,1.155-3.08c-2.2,1.688-4.199,3.347-5.995,4.978c-1.797,1.633-3.172,3.154-4.125,4.565
			c-0.954,1.412-1.356,2.695-1.21,3.85c0.146,1.155,1.1,2.082,2.86,2.778c0.146,0.073,0.165,0.329,0.055,0.77
			s-0.303,0.89-0.577,1.348c-0.275,0.459-0.624,0.844-1.045,1.155c-0.423,0.312-0.872,0.376-1.348,0.192
			c-1.944-0.844-3.154-1.87-3.63-3.08c-0.478-1.21-0.44-2.512,0.109-3.905c0.55-1.393,1.494-2.841,2.833-4.345
			c1.338-1.503,2.832-2.951,4.482-4.345c1.649-1.394,3.346-2.686,5.087-3.878c1.741-1.191,3.291-2.19,4.647-2.997
			c0.66-0.551,1.394-1.009,2.2-1.375s1.513-0.614,2.118-0.743c0.605-0.128,1.063-0.109,1.375,0.056
			c0.311,0.164,0.302,0.541-0.028,1.127c-0.33,0.624-0.907,1.752-1.732,3.383c-0.825,1.632-1.787,3.529-2.888,5.692
			c-1.1,2.164-2.273,4.455-3.52,6.875c-1.247,2.42-2.475,4.749-3.685,6.985s-2.348,4.262-3.41,6.077
			C240.894,50.215,240.034,51.563,239.374,52.443z"/>
		<path fill="#997618" d="M270.282,35.563c-8.688,0-18.722,16.177-16.033,17.329c2.688,1.104,9.553-6.576,12.77-11.473
			c-0.24-0.433-0.721-1.872-0.528-2.353c0.145-0.479,1.584-1.92,2.208-1.968c0.48-0.048,1.009,0.336,1.104,0.479
			c0.912,1.488,2.064,2.593,3.984,2.448c3.216-0.288,4.992-2.16,5.521-2.112c-0.24,0.673-2.161,2.257-4.513,3.024
			c-1.056,0.336-2.064,0.433-2.832,0.433c-0.72,0-1.2-0.097-1.44-0.192c-1.296,6.385-11.232,13.297-16.321,13.009
			c-2.208-0.144-3.648-1.968-3.648-3.792c0-7.824,10.513-15.649,18.098-15.649c1.824,0,2.593,0.528,2.929,0.816
			c0.239,0.144,0.096,0.144-0.097,0.144C271.002,35.659,270.618,35.563,270.282,35.563z"/>
		<path fill="#997618" d="M276.232,43.292c-0.192,0.816,0.96,1.584,1.44,2.016c7.681-4.32,13.825-5.376,14.449-5.376
			c0.096,0,0.288,0.096,0.288,0.24c0.432,0.144-9.073,2.64-14.306,5.76c0.624,0.48,1.824,1.873,1.681,2.881
			c-0.673,3.12-7.009,5.664-10.129,5.664c-1.057,0-1.584-0.864-1.824-1.92c0.144-2.064,7.2-6.097,8.881-6.769
			c-0.528-0.672-3.36-2.4-2.929-4.513c0.769-3.648,7.681-7.248,11.905-7.248c1.344,0,1.968,2.208,1.824,3.6
			c-0.048,0.673-3.072,3.553-4.369,3.553c-0.048,0-0.144-0.192-0.096-0.192c0.145,0,3.36-3.36,3.456-4.32
			C284.296,36.475,276.856,41.036,276.232,43.292z M269.08,52.028c1.872-0.527,7.824-3.6,7.824-5.424
			C274.024,48.236,270.471,50.636,269.08,52.028z"/>
		<path fill="#997618" d="M286.6,51.02c-0.049,0.576,0.384,0.912,1.439,0.912c3.505,0,12.289-6.673,17.138-10.705
			c0.144-0.096,0.528,0.145,0.384,0.288c-3.648,3.36-13.153,12.529-19.537,12.529c-1.536,0-3.408-1.729-3.408-3.024
			c0-1.152,0.239-2.112,0.624-3.168c1.199-2.736,3.6-5.761,6.624-8.305c3.984-3.313,8.257-4.801,10.321-4.801
			c0.768,0,2.928,1.104,2.928,2.448c0,2.977-9.169,9.889-14.593,10.033C287.704,48.236,286.744,49.772,286.6,51.02z M289.192,46.268
			c4.128-0.48,12.097-8.257,12.385-10.081C296.249,37.915,290.776,43.723,289.192,46.268z M303.257,25.337
			c1.152,0.097,3.552,1.345,3.552,2.209c-0.191,1.68-6.336,4.752-12.913,4.32c-2.016-0.145-2.4-0.721-2.256-0.673
			c5.521,0.385,11.377-3.504,11.521-5.28C303.21,25.482,302.921,25.386,303.257,25.337z"/>
		<path fill="#997618" d="M344.259,59.108c-0.331,0.51-0.639,0.893-0.923,1.147c-0.285,0.255-0.518,0.383-0.697,0.383
			c-0.181,0-0.278-0.128-0.293-0.383c-0.016-0.255,0.097-0.638,0.338-1.147c0.119-0.24,0.397-0.854,0.832-1.845
			s0.945-2.205,1.53-3.645c0.585-1.44,1.207-3.038,1.867-4.793s1.275-3.532,1.846-5.332c0.569-1.801,1.057-3.556,1.462-5.266
			s0.645-3.225,0.72-4.545c0.075-1.319-0.045-2.377-0.359-3.172c-0.315-0.795-0.908-1.193-1.777-1.193
			c-1.291,0-2.618,0.66-3.982,1.98c-1.366,1.32-2.783,3.082-4.253,5.287c-1.471,2.205-3.008,4.764-4.612,7.673
			c-1.605,2.91-3.278,5.955-5.018,9.135c-0.57,1.17-1.088,2.228-1.553,3.173c-0.466,0.945-0.862,1.702-1.192,2.272
			c-0.18,0.33-0.376,0.518-0.585,0.563c-0.21,0.045-0.391,0.007-0.54-0.112c-0.15-0.12-0.247-0.315-0.293-0.585
			c-0.045-0.271,0.022-0.585,0.203-0.945c0.39-0.87,0.854-2.025,1.395-3.465c0.54-1.44,1.103-2.993,1.688-4.657
			c0.585-1.665,1.162-3.375,1.732-5.131c0.57-1.755,1.095-3.39,1.575-4.904c0.479-1.515,0.9-2.827,1.26-3.938
			c0.36-1.109,0.601-1.86,0.721-2.25c-1.681,1.141-3.136,2.114-4.365,2.925c-1.23,0.81-2.108,1.538-2.633,2.183
			c-0.525,0.646-0.63,1.245-0.314,1.8c0.314,0.556,1.192,1.118,2.632,1.688c0.12,0.061,0.136,0.27,0.045,0.63
			c-0.09,0.36-0.247,0.728-0.472,1.103c-0.226,0.376-0.511,0.69-0.855,0.945s-0.713,0.308-1.103,0.157
			c-1.62-0.689-2.67-1.433-3.149-2.228c-0.48-0.795-0.563-1.604-0.248-2.43c0.315-0.825,0.938-1.657,1.867-2.498
			c0.93-0.839,1.995-1.657,3.195-2.452c1.199-0.795,2.452-1.545,3.758-2.25c1.305-0.705,2.497-1.343,3.577-1.912
			c0.54-0.39,1.117-0.728,1.732-1.013c0.614-0.285,1.162-0.473,1.643-0.563c0.479-0.09,0.825-0.053,1.035,0.112
			s0.194,0.473-0.045,0.923c-0.271,0.51-0.72,1.417-1.351,2.722c-0.63,1.306-1.335,2.828-2.114,4.568
			c1.14-1.86,2.317-3.652,3.532-5.378c1.215-1.725,2.43-3.24,3.645-4.545c1.216-1.305,2.4-2.347,3.556-3.128
			c1.154-0.779,2.257-1.17,3.308-1.17c0.81,0,1.409,0.301,1.8,0.9c0.39,0.601,0.607,1.425,0.652,2.475
			c0.045,1.051-0.045,2.272-0.27,3.668c-0.226,1.395-0.548,2.888-0.968,4.478c-0.421,1.59-0.916,3.239-1.485,4.95
			c-0.57,1.71-1.155,3.39-1.755,5.039c0.84-1.619,1.739-3.276,2.7-4.972c0.96-1.695,1.942-3.337,2.947-4.928
			c1.005-1.59,2.032-3.09,3.083-4.5c1.05-1.41,2.092-2.64,3.127-3.69c1.035-1.05,2.048-1.882,3.038-2.497
			c0.989-0.614,1.949-0.923,2.88-0.923c1.02,0,1.665,0.533,1.935,1.598c0.271,1.065,0.255,2.475-0.045,4.23
			c-0.3,1.755-0.81,3.765-1.53,6.029c-0.72,2.266-1.545,4.598-2.475,6.998c-0.931,2.4-1.905,4.763-2.925,7.087
			c-1.021,2.325-1.974,4.433-2.857,6.323c-0.886,1.89-1.65,3.472-2.295,4.747c-0.646,1.274-1.043,2.048-1.193,2.317
			c-0.3,0.54-0.569,0.9-0.81,1.08s-0.421,0.232-0.54,0.157c-0.12-0.075-0.157-0.27-0.112-0.585c0.045-0.314,0.202-0.697,0.473-1.147
			c0.119-0.21,0.435-0.848,0.944-1.912c0.51-1.065,1.117-2.378,1.823-3.938c0.704-1.561,1.462-3.308,2.272-5.242
			c0.81-1.936,1.574-3.893,2.295-5.873c0.72-1.979,1.356-3.907,1.912-5.782c0.555-1.875,0.93-3.54,1.125-4.995
			s0.165-2.625-0.09-3.51s-0.817-1.328-1.688-1.328c-0.961,0-1.92,0.36-2.88,1.08c-0.961,0.721-1.928,1.726-2.902,3.016
			c-0.976,1.29-1.98,2.82-3.016,4.59c-1.035,1.771-2.107,3.705-3.217,5.805c-1.11,2.101-2.28,4.32-3.511,6.66
			s-2.535,4.725-3.915,7.155L344.259,59.108z"/>
		<path fill="#997618" d="M385.576,44.54c-1.44,1.44-10.801,9.505-12.817,9.505c-0.096,0-0.336-0.096-0.432-0.145
			c-0.864-0.432-2.112-2.256-2.112-3.216c0-5.232,10.993-15.938,19.825-15.938c1.824,0,4.225,0.769,4.225,3.024
			c0,0.816-0.432,1.632-0.912,2.256c-0.096,0.048-0.191,0-0.144-0.048c0.239-0.432,0.527-1.008,0.527-1.729
			c0-1.439-0.912-2.16-2.352-2.063c-2.784,0.144-6.289,2.16-9.409,4.8c-4.561,3.889-8.16,9.938-7.729,10.177
			c0.096,0.049,0.192,0.049,0.336,0c1.584-0.527,8.305-5.376,10.801-7.488c0.864-0.768,3.984-3.792,5.185-4.464
			c0.96-0.48,2.593,2.16,2.4,2.735c-0.24-0.479-4.561,4.753-6.001,7.825c-0.288,0.672-0.479,1.248-0.479,1.632
			c3.024-0.864,9.889-7.44,12.865-10.225c0.239-0.24,0.479,0.144,0.336,0.288c-4.177,4.561-12.001,12.577-14.882,12.577
			c-0.239,0-0.479-0.096-0.815-0.288c-0.672-0.384-1.584-1.393-1.584-2.256c0-0.48,0.191-1.057,0.384-1.776
			C383.368,47.948,384.664,45.74,385.576,44.54z"/>
		<path fill="#997618" d="M403.863,35.083c0.288-0.191,0.48-0.24,0.673-0.24c1.151,0,2.976,1.872,2.976,3.072
			c0,0.192-0.144-0.048-0.527-0.096c-0.721-0.048-2.4,1.824-3.841,3.744c-1.296,1.729-2.977,3.984-3.984,5.761
			c2.544-3.313,7.345-7.345,11.473-10.321c1.873-1.344,3.313-2.16,4.321-2.256c0.527-0.048,2.496,2.017,2.16,2.4
			c-1.057,1.104-5.041,4.608-6.625,8.353c2.304-0.192,5.616-2.353,8.593-4.992c0.048-0.048,0.336-0.097,0.384,0
			c-0.864,1.152-6.624,6.528-9.937,6.528c-0.864,0-2.305-1.68-2.305-2.256c0-1.345,1.536-4.129,2.784-5.568
			c-4.416,2.592-6.672,4.512-9.937,8.112c-2.448,2.641-5.328,6.864-4.272,7.345c-1.392,0.336-2.544-1.152-2.88-2.496
			c-0.097-0.433,0.144-1.345,0.72-2.448c1.2-2.736,3.36-6.049,5.28-8.785C400.599,38.491,402.664,36.042,403.863,35.083z"/>
		<path fill="#997618" d="M414.422,53.997c-0.768-0.24-1.968-1.44-1.968-2.305c0-2.784,6.96-13.249,10.032-15.697
			c0.24-0.24,0.528-0.288,0.721-0.288c1.104,0,3.024,1.92,3.024,3.12c0,0.192-0.24-0.048-0.624-0.096
			c-1.969-0.192-8.545,10.753-9.121,12.721c2.928-0.768,9.937-7.44,12.865-10.272c0.336-0.24,0.576,0.144,0.432,0.288
			c-4.176,4.513-11.809,12.337-14.785,12.577C414.806,54.044,414.663,54.044,414.422,53.997z M429.928,24.906
			c1.104,0,3.456,1.104,3.456,2.017c0,1.728-5.473,5.376-11.473,5.376c-1.873,0-2.353-0.576-2.16-0.576
			c5.088,0,10.129-4.368,10.129-6.192C429.88,25.049,429.64,24.906,429.928,24.906z"/>
		<path fill="#997618" d="M438.328,44.54c-1.44,1.44-10.801,9.505-12.817,9.505c-0.096,0-0.336-0.096-0.432-0.145
			c-0.864-0.432-2.112-2.256-2.112-3.216c0-5.232,10.993-15.938,19.825-15.938c1.824,0,4.225,0.769,4.225,3.024
			c0,0.816-0.432,1.632-0.912,2.256c-0.096,0.048-0.191,0-0.144-0.048c0.239-0.432,0.527-1.008,0.527-1.729
			c0-1.439-0.912-2.16-2.352-2.063c-2.784,0.144-6.289,2.16-9.409,4.8c-4.561,3.889-8.16,9.938-7.729,10.177
			c0.096,0.049,0.192,0.049,0.336,0c1.584-0.527,8.305-5.376,10.801-7.488c0.864-0.768,3.984-3.792,5.185-4.464
			c0.96-0.48,2.593,2.16,2.4,2.735c-0.24-0.479-4.561,4.753-6.001,7.825c-0.288,0.672-0.479,1.248-0.479,1.632
			c3.024-0.864,9.889-7.44,12.865-10.225c0.239-0.24,0.479,0.144,0.336,0.288c-4.177,4.561-12.001,12.577-14.882,12.577
			c-0.239,0-0.479-0.096-0.815-0.288c-0.672-0.384-1.584-1.393-1.584-2.256c0-0.48,0.191-1.057,0.384-1.776
			C436.12,47.948,437.416,45.74,438.328,44.54z"/>
	</g>
</g>
</svg>
